# xmcd
#
# Track frame offsets:
# 150
# 24130
# 37835
# 56002
# 83748
# 105564
# 130690
# 144639
#
# Disc length: 2292 seconds
#
#
# Revision: 0
# Processed by: cddbd v1.5.2PL0 Copyright (c) Steve Scherf et al.
# Submitted via: FreeRIP 2.943 
#
DISCID=5908f208
DTITLE=Wil Kennedy - Born Again Y'at
DYEAR=1900
DGENRE=Blues
TTITLE0=Below Zero
TTITLE1=Don't Talk NO Trash
TTITLE2=Rainbow
TTITLE3=Reason for the Blues
TTITLE4=Highway Blues
TTITLE5=Stop Loving me
TTITLE6=Oak and Willow
TTITLE7=The Art
EXTD=
EXTT0=
EXTT1=
EXTT2=
EXTT3=
EXTT4=
EXTT5=
EXTT6=
EXTT7=
PLAYORDER=
